<svg fill="#000000" xmlns="http://www.w3.org/2000/svg"  viewBox="0 0 50 50" width="50px" height="50px"><path d="M17.594,23.641h-2.681c-0.692,0-1.253-0.561-1.253-1.253v-4.613c0-0.758,0.475-1.428,1.189-1.681	c1.738-0.614,4.822-2.439,5.33-7.712C20.255,7.605,20.892,7,21.674,7h4.993c0.681,0,1.234,0.552,1.234,1.234v7.267h5.053	c0.692,0,1.253,0.561,1.253,1.253v5.635c0,0.692-0.561,1.253-1.253,1.253h-5.053v8.142c0,1.85,0.893,2.559,1.745,2.559	c0.67,0,1.828-0.306,2.685-0.538c0.712-0.193,1.196,0.026,1.444,0.747s1.598,4.557,1.598,4.557c0.246,0.703-0.006,1.477-0.615,1.906	c-1.152,0.812-3.319,1.924-6.547,1.924c-5.014,0-10.617-2.228-10.617-10.542C17.594,30.745,17.594,23.641,17.594,23.641z"/></svg>